<svg width="60" height="60" viewBox="0 0 60 60" fill="none" xmlns="http://www.w3.org/2000/svg">
<path fill-rule="evenodd" clip-rule="evenodd" d="M20.625 16.875C20.625 14.3886 21.6127 12.004 23.3709 10.2459C25.129 8.48772 27.5136 7.5 30 7.5C32.4864 7.5 34.871 8.48772 36.6291 10.2459C38.3873 12.004 39.375 14.3886 39.375 16.875C39.375 19.3614 38.3873 21.746 36.6291 23.5041C34.871 25.2623 32.4864 26.25 30 26.25C27.5136 26.25 25.129 25.2623 23.3709 23.5041C21.6127 21.746 20.625 19.3614 20.625 16.875ZM39.375 24.375C39.375 22.3859 40.1652 20.4782 41.5717 19.0717C42.9782 17.6652 44.8859 16.875 46.875 16.875C48.8641 16.875 50.7718 17.6652 52.1783 19.0717C53.5848 20.4782 54.375 22.3859 54.375 24.375C54.375 26.3641 53.5848 28.2718 52.1783 29.6783C50.7718 31.0848 48.8641 31.875 46.875 31.875C44.8859 31.875 42.9782 31.0848 41.5717 29.6783C40.1652 28.2718 39.375 26.3641 39.375 24.375ZM5.625 24.375C5.625 22.3859 6.41518 20.4782 7.8217 19.0717C9.22822 17.6652 11.1359 16.875 13.125 16.875C15.1141 16.875 17.0218 17.6652 18.4283 19.0717C19.8348 20.4782 20.625 22.3859 20.625 24.375C20.625 26.3641 19.8348 28.2718 18.4283 29.6783C17.0218 31.0848 15.1141 31.875 13.125 31.875C11.1359 31.875 9.22822 31.0848 7.8217 29.6783C6.41518 28.2718 5.625 26.3641 5.625 24.375ZM15.775 37.7925C17.2999 35.4026 19.4027 33.4356 21.8891 32.0736C24.3754 30.7116 27.165 29.9984 30 30C32.3746 29.9978 34.7228 30.4972 36.891 31.4654C39.0592 32.4336 40.9984 33.8488 42.5818 35.6184C44.1652 37.388 45.357 39.472 46.0791 41.7341C46.8013 43.9962 47.0376 46.3853 46.7725 48.745C46.7401 49.0382 46.639 49.3195 46.4774 49.5663C46.3158 49.813 46.0983 50.0181 45.8425 50.165C41.0214 52.9313 35.5584 54.3831 30 54.375C24.2375 54.375 18.825 52.845 14.1575 50.165C13.9017 50.0181 13.6842 49.813 13.5226 49.5663C13.361 49.3195 13.2599 49.0382 13.2275 48.745C12.8076 44.9116 13.7062 41.0494 15.775 37.795V37.7925Z" fill="black"/>
<path d="M12.7052 35.635C10.2396 39.441 9.09084 43.9508 9.4352 48.4725C7.93397 48.2449 6.45747 47.8766 5.0252 47.3725L4.7377 47.2725C4.48119 47.1815 4.25658 47.018 4.09107 46.8019C3.92557 46.5858 3.82627 46.3264 3.8052 46.055L3.7802 45.7525C3.67921 44.4974 3.83209 43.2348 4.22971 42.0401C4.62733 40.8454 5.26155 39.743 6.09451 38.7988C6.92748 37.8545 7.94212 37.0877 9.0779 36.5442C10.2137 36.0006 11.4473 35.6914 12.7052 35.635ZM50.5652 48.4725C50.9096 43.9508 49.7608 39.441 47.2952 35.635C48.5531 35.6914 49.7867 36.0006 50.9225 36.5442C52.0583 37.0877 53.0729 37.8545 53.9059 38.7988C54.7389 39.743 55.3731 40.8454 55.7707 42.0401C56.1683 43.2348 56.3212 44.4974 56.2202 45.7525L56.1952 46.055C56.1737 46.3259 56.0742 46.5848 55.9087 46.8005C55.7432 47.0161 55.5189 47.1791 55.2627 47.27L54.9752 47.37C53.5577 47.87 52.0852 48.2425 50.5652 48.4725Z" fill="black"/>
</svg>
