<svg width="20" height="20" viewBox="0 0 20 20" fill="none" xmlns="http://www.w3.org/2000/svg">
<path d="M9.48016 1.49897C9.52246 1.3958 9.59449 1.30755 9.68708 1.24543C9.77968 1.18331 9.88866 1.15015 10.0002 1.15015C10.1117 1.15015 10.2206 1.18331 10.3132 1.24543C10.4058 1.30755 10.4779 1.3958 10.5202 1.49897L12.6452 6.60997C12.6849 6.70561 12.7503 6.78841 12.8341 6.84928C12.9179 6.91015 13.0169 6.94672 13.1202 6.95497L18.6382 7.39697C19.1372 7.43697 19.3392 8.05997 18.9592 8.38497L14.7552 11.987C14.6766 12.0542 14.6181 12.1417 14.586 12.2399C14.5539 12.3382 14.5494 12.4434 14.5732 12.544L15.8582 17.929C15.884 18.037 15.8772 18.1503 15.8387 18.2545C15.8002 18.3587 15.7317 18.4491 15.6418 18.5144C15.5519 18.5797 15.4447 18.6168 15.3337 18.6212C15.2227 18.6256 15.1129 18.597 15.0182 18.539L10.2932 15.654C10.2049 15.6001 10.1036 15.5715 10.0002 15.5715C9.89678 15.5715 9.79539 15.6001 9.70716 15.654L4.98216 18.54C4.88742 18.598 4.77762 18.6266 4.66662 18.6222C4.55562 18.6178 4.44841 18.5807 4.35853 18.5154C4.26865 18.4501 4.20013 18.3597 4.16162 18.2555C4.12311 18.1513 4.11634 18.038 4.14216 17.93L5.42716 12.544C5.451 12.4434 5.44661 12.3381 5.4145 12.2399C5.38239 12.1416 5.3238 12.0541 5.24516 11.987L1.04116 8.38497C0.956507 8.3128 0.895171 8.21714 0.864924 8.11009C0.834677 8.00304 0.836879 7.88942 0.871253 7.78362C0.905627 7.67782 0.970625 7.58461 1.05802 7.51578C1.14541 7.44695 1.25126 7.4056 1.36216 7.39697L6.88016 6.95497C6.98341 6.94672 7.08239 6.91015 7.16619 6.84928C7.25 6.78841 7.31539 6.70561 7.35516 6.60997L9.48016 1.49897Z" stroke="black" stroke-width="1.5" stroke-linecap="round" stroke-linejoin="round"/>
</svg>
